<?xml version="1.0" standalone="no"?>
<!DOCTYPE svg PUBLIC "-//W3C//DTD SVG 20010904//EN"
 "http://www.w3.org/TR/2001/REC-SVG-20010904/DTD/svg10.dtd">
<svg version="1.0" xmlns="http://www.w3.org/2000/svg"
 width="700.000000pt" height="700.000000pt" viewBox="0 0 700.000000 700.000000"
 preserveAspectRatio="xMidYMid meet">
<metadata>
Created by potrace 1.11, written by Peter Selinger 2001-2013
</metadata>
<g transform="translate(0.000000,700.000000) scale(0.100000,-0.100000)"
fill="#000000" stroke="none">
<path d="M220 5905 l0 -875 1310 0 1310 0 0 875 0 875 -1310 0 -1310 0 0 -875z
m2153 644 c48 -13 102 -61 129 -112 16 -32 19 -54 16 -108 -5 -89 -24 -114
-173 -230 -264 -204 -398 -322 -715 -634 -268 -263 -315 -297 -432 -311 -78
-9 -177 22 -254 80 -100 74 -456 439 -481 493 -37 79 -26 160 30 229 58 70
168 94 252 55 25 -12 113 -92 230 -210 l189 -190 221 217 c277 274 500 469
757 661 90 67 150 83 231 60z"/>
<path d="M3720 5905 l0 -875 1310 0 1310 0 0 875 0 875 -1310 0 -1310 0 0
-875z"/>
<path d="M220 3935 l0 -875 1310 0 1310 0 0 875 0 875 -1310 0 -1310 0 0 -875z"/>
<path d="M3720 3935 l0 -875 1310 0 1310 0 0 875 0 875 -1310 0 -1310 0 0
-875z m2175 636 c47 -22 99 -74 114 -114 16 -42 13 -134 -5 -174 -19 -38 -59
-75 -245 -221 -213 -168 -334 -277 -604 -542 -143 -141 -281 -268 -307 -283
-74 -43 -154 -60 -229 -48 -117 19 -154 46 -402 290 -238 235 -277 286 -277
360 0 89 49 168 125 202 53 24 135 24 183 0 20 -10 122 -105 226 -210 l190
-191 245 243 c304 299 714 645 821 691 48 21 117 19 165 -3z"/>
<path d="M220 1965 l0 -875 1310 0 1310 0 0 875 0 875 -1310 0 -1310 0 0 -875z"/>
</g>
</svg>
